<svg width="90" height="19" viewBox="0 0 90 19" fill="none" xmlns="http://www.w3.org/2000/svg">
<rect width="90" height="19" rx="9.5" fill="#8B8B8B" fill-opacity="0.1"/>
<path fill-rule="evenodd" clip-rule="evenodd" d="M6.55139 8.48428L11.9124 6.10961C12.4417 5.86218 14.2365 5.07063 14.2365 5.07063C14.2365 5.07063 15.0648 4.72429 14.9959 5.5655C14.9728 5.91183 14.7888 7.12378 14.6049 8.43463L14.0298 12.3179C14.0298 12.3179 13.9836 12.8869 13.5925 12.9858C13.2015 13.0847 12.5571 12.6394 12.442 12.5405C12.35 12.4665 10.7161 11.3534 10.118 10.8093C9.95669 10.6607 9.7727 10.3641 10.1411 10.0177C10.9694 9.20136 11.959 8.18719 12.5571 7.54418C12.8331 7.2475 13.1095 6.55484 11.959 7.39564L8.71457 9.74548C8.71457 9.74548 8.34659 9.99291 7.65607 9.7703C6.96592 9.54769 6.16069 9.25101 6.16069 9.25101C6.16069 9.25101 5.60835 8.87985 6.55176 8.48428H6.55139Z" fill="#37AEE2"/>
<path d="M22.9531 9.4375V13H21.7852V7H22.9062V7.97656H22.9805C23.1185 7.65885 23.3346 7.40365 23.6289 7.21094C23.9258 7.01823 24.2995 6.92188 24.75 6.92188C25.1589 6.92188 25.5169 7.00781 25.8242 7.17969C26.1315 7.34896 26.3698 7.60156 26.5391 7.9375C26.7083 8.27344 26.793 8.6888 26.793 9.18359V13H25.625V9.32422C25.625 8.88932 25.5117 8.54948 25.2852 8.30469C25.0586 8.05729 24.7474 7.93359 24.3516 7.93359C24.0807 7.93359 23.8398 7.99219 23.6289 8.10937C23.4206 8.22656 23.2552 8.39844 23.1328 8.625C23.013 8.84896 22.9531 9.11979 22.9531 9.4375ZM30.8867 13.1211C30.3242 13.1211 29.8333 12.9922 29.4141 12.7344C28.9948 12.4766 28.6693 12.1159 28.4375 11.6523C28.2057 11.1888 28.0898 10.6471 28.0898 10.0273C28.0898 9.40495 28.2057 8.86068 28.4375 8.39453C28.6693 7.92839 28.9948 7.56641 29.4141 7.30859C29.8333 7.05078 30.3242 6.92188 30.8867 6.92188C31.4492 6.92188 31.9401 7.05078 32.3594 7.30859C32.7786 7.56641 33.1042 7.92839 33.3359 8.39453C33.5677 8.86068 33.6836 9.40495 33.6836 10.0273C33.6836 10.6471 33.5677 11.1888 33.3359 11.6523C33.1042 12.1159 32.7786 12.4766 32.3594 12.7344C31.9401 12.9922 31.4492 13.1211 30.8867 13.1211ZM30.8906 12.1406C31.2552 12.1406 31.5573 12.0443 31.7969 11.8516C32.0365 11.6589 32.2135 11.4023 32.3281 11.082C32.4453 10.7617 32.5039 10.4089 32.5039 10.0234C32.5039 9.64062 32.4453 9.28906 32.3281 8.96875C32.2135 8.64583 32.0365 8.38672 31.7969 8.19141C31.5573 7.99609 31.2552 7.89844 30.8906 7.89844C30.5234 7.89844 30.2188 7.99609 29.9766 8.19141C29.737 8.38672 29.5586 8.64583 29.4414 8.96875C29.3268 9.28906 29.2695 9.64062 29.2695 10.0234C29.2695 10.4089 29.3268 10.7617 29.4414 11.082C29.5586 11.4023 29.737 11.6589 29.9766 11.8516C30.2188 12.0443 30.5234 12.1406 30.8906 12.1406ZM35.6729 7L36.9971 9.33594L38.333 7H39.6104L37.7393 10L39.626 13H38.3486L36.9971 10.7578L35.6494 13H34.3682L36.2354 10L34.3916 7H35.6729ZM43.1592 13.1211C42.568 13.1211 42.0589 12.9948 41.6318 12.7422C41.2074 12.487 40.8792 12.1289 40.6475 11.668C40.4183 11.2044 40.3037 10.6615 40.3037 10.0391C40.3037 9.42448 40.4183 8.88281 40.6475 8.41406C40.8792 7.94531 41.2021 7.57943 41.6162 7.31641C42.0329 7.05339 42.5199 6.92188 43.0771 6.92188C43.4157 6.92188 43.7438 6.97786 44.0615 7.08984C44.3792 7.20182 44.6644 7.3776 44.917 7.61719C45.1696 7.85677 45.3688 8.16797 45.5146 8.55078C45.6605 8.93099 45.7334 9.39323 45.7334 9.9375V10.3516H40.9639V9.47656H44.5889C44.5889 9.16927 44.5264 8.89714 44.4014 8.66016C44.2764 8.42057 44.1006 8.23177 43.874 8.09375C43.6501 7.95573 43.387 7.88672 43.085 7.88672C42.7568 7.88672 42.4704 7.96745 42.2256 8.12891C41.9834 8.28776 41.7959 8.49609 41.6631 8.75391C41.5329 9.00911 41.4678 9.28646 41.4678 9.58594V10.2695C41.4678 10.6706 41.5381 11.0117 41.6787 11.293C41.8219 11.5742 42.0212 11.7891 42.2764 11.9375C42.5316 12.0833 42.8298 12.1562 43.1709 12.1562C43.3923 12.1562 43.5941 12.125 43.7764 12.0625C43.9587 11.9974 44.1162 11.901 44.249 11.7734C44.3818 11.6458 44.4834 11.4883 44.5537 11.3008L45.6592 11.5C45.5706 11.8255 45.4118 12.1107 45.1826 12.3555C44.9561 12.5977 44.6709 12.7865 44.3271 12.9219C43.986 13.0547 43.5967 13.1211 43.1592 13.1211ZM47.0293 13V7H48.1582V7.95312H48.2207C48.3301 7.63021 48.5228 7.3763 48.7988 7.19141C49.0775 7.00391 49.3926 6.91016 49.7441 6.91016C49.8171 6.91016 49.903 6.91276 50.002 6.91797C50.1035 6.92318 50.1829 6.92969 50.2402 6.9375V8.05469C50.1934 8.04167 50.11 8.02734 49.9902 8.01172C49.8704 7.99349 49.7507 7.98437 49.6309 7.98437C49.3548 7.98437 49.1087 8.04297 48.8926 8.16016C48.679 8.27474 48.5098 8.4349 48.3848 8.64062C48.2598 8.84375 48.1973 9.07552 48.1973 9.33594V13H47.0293ZM52.9434 13.1328C52.5632 13.1328 52.2194 13.0625 51.9121 12.9219C51.6048 12.7786 51.3613 12.5716 51.1816 12.3008C51.0046 12.0299 50.916 11.6979 50.916 11.3047C50.916 10.9661 50.9811 10.6875 51.1113 10.4687C51.2415 10.25 51.4173 10.0768 51.6387 9.94922C51.86 9.82161 52.1074 9.72526 52.3809 9.66016C52.6543 9.59505 52.9329 9.54557 53.2168 9.51172C53.5762 9.47005 53.8678 9.4362 54.0918 9.41016C54.3158 9.38151 54.4785 9.33594 54.5801 9.27344C54.6816 9.21094 54.7324 9.10937 54.7324 8.96875V8.94141C54.7324 8.60026 54.6361 8.33594 54.4434 8.14844C54.2533 7.96094 53.9694 7.86719 53.5918 7.86719C53.1986 7.86719 52.8887 7.95443 52.6621 8.12891C52.4382 8.30078 52.2832 8.49219 52.1973 8.70312L51.0996 8.45312C51.2298 8.08854 51.4199 7.79427 51.6699 7.57031C51.9225 7.34375 52.2129 7.17969 52.541 7.07812C52.8691 6.97396 53.2142 6.92188 53.5762 6.92188C53.8158 6.92188 54.0697 6.95052 54.3379 7.00781C54.6087 7.0625 54.8613 7.16406 55.0957 7.3125C55.3327 7.46094 55.5267 7.67318 55.6777 7.94922C55.8288 8.22266 55.9043 8.57813 55.9043 9.01563V13H54.7637V12.1797H54.7168C54.6413 12.3307 54.528 12.4792 54.377 12.625C54.2259 12.7708 54.0319 12.8919 53.7949 12.9883C53.5579 13.0846 53.2741 13.1328 52.9434 13.1328ZM53.1973 12.1953C53.5202 12.1953 53.7962 12.1315 54.0254 12.0039C54.2572 11.8763 54.4329 11.7096 54.5527 11.5039C54.6751 11.2956 54.7363 11.0729 54.7363 10.8359V10.0625C54.6947 10.1042 54.6139 10.1432 54.4941 10.1797C54.377 10.2135 54.2428 10.2435 54.0918 10.2695C53.9408 10.293 53.7936 10.3151 53.6504 10.3359C53.5072 10.3542 53.3874 10.3698 53.291 10.3828C53.0645 10.4115 52.8574 10.4596 52.6699 10.5273C52.485 10.5951 52.3366 10.6927 52.2246 10.8203C52.1152 10.9453 52.0605 11.112 52.0605 11.3203C52.0605 11.6094 52.1673 11.8281 52.3809 11.9766C52.5944 12.1224 52.8665 12.1953 53.1973 12.1953ZM57.46 13V7H58.6279V13H57.46ZM58.0498 6.07422C57.8467 6.07422 57.6722 6.00651 57.5264 5.87109C57.3831 5.73307 57.3115 5.56901 57.3115 5.37891C57.3115 5.1862 57.3831 5.02214 57.5264 4.88672C57.6722 4.7487 57.8467 4.67969 58.0498 4.67969C58.2529 4.67969 58.4261 4.7487 58.5693 4.88672C58.7152 5.02214 58.7881 5.1862 58.7881 5.37891C58.7881 5.56901 58.7152 5.73307 58.5693 5.87109C58.4261 6.00651 58.2529 6.07422 58.0498 6.07422ZM64.9248 13V13.9922H59.8428V13H64.9248ZM65.793 13V5H66.9609V7.97266H67.0313C67.099 7.84766 67.1966 7.70312 67.3242 7.53906C67.4518 7.375 67.6289 7.23177 67.8555 7.10937C68.082 6.98438 68.3815 6.92188 68.7539 6.92188C69.2383 6.92188 69.6706 7.04427 70.0508 7.28906C70.431 7.53385 70.7292 7.88672 70.9453 8.34766C71.1641 8.80859 71.2734 9.36328 71.2734 10.0117C71.2734 10.6602 71.1654 11.2161 70.9492 11.6797C70.7331 12.1406 70.4362 12.4961 70.0586 12.7461C69.681 12.9935 69.25 13.1172 68.7656 13.1172C68.401 13.1172 68.1029 13.056 67.8711 12.9336C67.6419 12.8112 67.4622 12.668 67.332 12.5039C67.2018 12.3398 67.1016 12.194 67.0313 12.0664H66.9336V13H65.793ZM66.9375 10C66.9375 10.4219 66.9987 10.7917 67.1211 11.1094C67.2435 11.4271 67.4206 11.6758 67.6523 11.8555C67.8841 12.0326 68.168 12.1211 68.5039 12.1211C68.8529 12.1211 69.1445 12.0286 69.3789 11.8437C69.6133 11.6562 69.7904 11.4023 69.9102 11.082C70.0326 10.7617 70.0938 10.401 70.0938 10C70.0938 9.60417 70.0339 9.2487 69.9141 8.93359C69.7969 8.61849 69.6198 8.36979 69.3828 8.1875C69.1484 8.00521 68.8555 7.91406 68.5039 7.91406C68.1654 7.91406 67.8789 8.0013 67.6445 8.17578C67.4128 8.35026 67.237 8.59375 67.1172 8.90625C66.9974 9.21875 66.9375 9.58333 66.9375 10ZM75.1123 13.1211C74.5498 13.1211 74.0589 12.9922 73.6396 12.7344C73.2204 12.4766 72.8949 12.1159 72.6631 11.6523C72.4313 11.1888 72.3154 10.6471 72.3154 10.0273C72.3154 9.40495 72.4313 8.86068 72.6631 8.39453C72.8949 7.92839 73.2204 7.56641 73.6396 7.30859C74.0589 7.05078 74.5498 6.92188 75.1123 6.92188C75.6748 6.92188 76.1657 7.05078 76.585 7.30859C77.0042 7.56641 77.3298 7.92839 77.5615 8.39453C77.7933 8.86068 77.9092 9.40495 77.9092 10.0273C77.9092 10.6471 77.7933 11.1888 77.5615 11.6523C77.3298 12.1159 77.0042 12.4766 76.585 12.7344C76.1657 12.9922 75.6748 13.1211 75.1123 13.1211ZM75.1162 12.1406C75.4808 12.1406 75.7829 12.0443 76.0225 11.8516C76.262 11.6589 76.4391 11.4023 76.5537 11.082C76.6709 10.7617 76.7295 10.4089 76.7295 10.0234C76.7295 9.64062 76.6709 9.28906 76.5537 8.96875C76.4391 8.64583 76.262 8.38672 76.0225 8.19141C75.7829 7.99609 75.4808 7.89844 75.1162 7.89844C74.749 7.89844 74.4443 7.99609 74.2021 8.19141C73.9626 8.38672 73.7842 8.64583 73.667 8.96875C73.5524 9.28906 73.4951 9.64062 73.4951 10.0234C73.4951 10.4089 73.5524 10.7617 73.667 11.082C73.7842 11.4023 73.9626 11.6589 74.2021 11.8516C74.4443 12.0443 74.749 12.1406 75.1162 12.1406ZM82.0137 7V7.9375H78.7363V7H82.0137ZM79.6152 5.5625H80.7832V11.2383C80.7832 11.4648 80.8171 11.6354 80.8848 11.75C80.9525 11.862 81.0397 11.9388 81.1465 11.9805C81.2559 12.0195 81.3743 12.0391 81.502 12.0391C81.5957 12.0391 81.6777 12.0326 81.748 12.0195C81.8184 12.0065 81.873 11.9961 81.9121 11.9883L82.123 12.9531C82.0553 12.9792 81.959 13.0052 81.834 13.0313C81.709 13.0599 81.5527 13.0755 81.3652 13.0781C81.0579 13.0833 80.7715 13.0286 80.5059 12.9141C80.2402 12.7995 80.0254 12.6224 79.8613 12.3828C79.6973 12.1432 79.6152 11.8424 79.6152 11.4805V5.5625Z" fill="#8B8B8B"/>
</svg>
