<svg width="46" height="22" viewBox="0 0 46 22" fill="none" xmlns="http://www.w3.org/2000/svg">
<rect width="46" height="22" rx="11" fill="#FFCA28"/>
<path d="M11.7371 15.1257C11.0895 15.1257 10.4838 15.0457 9.92 14.8857C9.35619 14.7257 8.87619 14.5048 8.48 14.2229L9.00571 12.8286C9.26476 13.0038 9.53905 13.1524 9.82857 13.2743C10.1181 13.3962 10.4229 13.4914 10.7429 13.56C11.0629 13.621 11.3981 13.6514 11.7486 13.6514C12.2971 13.6514 12.6857 13.5676 12.9143 13.4C13.1505 13.2324 13.2686 13.019 13.2686 12.76C13.2686 12.5238 13.1886 12.3448 13.0286 12.2229C12.8762 12.0933 12.5943 11.9829 12.1829 11.8914L10.8343 11.6171C10.0952 11.4648 9.54286 11.2057 9.17714 10.84C8.81143 10.4743 8.62857 9.98667 8.62857 9.37714C8.62857 8.85905 8.76571 8.40952 9.04 8.02857C9.31429 7.64762 9.69905 7.35048 10.1943 7.13714C10.6971 6.92381 11.2838 6.81714 11.9543 6.81714C12.5257 6.81714 13.059 6.89714 13.5543 7.05714C14.0495 7.21714 14.4571 7.44571 14.7771 7.74286L14.2514 9.04571C13.939 8.79429 13.5886 8.60762 13.2 8.48571C12.819 8.35619 12.3924 8.29143 11.92 8.29143C11.4248 8.29143 11.0438 8.37905 10.7771 8.55429C10.5181 8.72952 10.3886 8.96952 10.3886 9.27429C10.3886 9.50286 10.4686 9.68952 10.6286 9.83429C10.7886 9.97143 11.0705 10.0819 11.4743 10.1657L12.8 10.4286C13.5543 10.581 14.1143 10.8362 14.48 11.1943C14.8457 11.5524 15.0286 12.0286 15.0286 12.6229C15.0286 13.1257 14.8914 13.5638 14.6171 13.9371C14.3505 14.3105 13.9695 14.6038 13.4743 14.8171C12.9867 15.0229 12.4076 15.1257 11.7371 15.1257ZM15.3185 15L19.0213 6.94286H20.4956L24.2442 15H22.4385L21.4671 12.76L22.1642 13.2514H17.3756L18.0842 12.76L17.1128 15H15.3185ZM19.7528 8.81714L18.2785 12.3143L17.9699 11.88H21.5699L21.3071 12.3143L19.7985 8.81714H19.7528ZM24.9389 15V6.94286H26.7218V13.5029H30.3561V15H24.9389ZM31.4456 15V6.94286H37.0456V8.32571H33.1485V10.2114H36.7713V11.6057H33.1485V13.6171H37.0456V15H31.4456Z" fill="white"/>
</svg>
