<svg width="45" height="22" viewBox="0 0 45 22" fill="none" xmlns="http://www.w3.org/2000/svg">
<rect width="45" height="22" rx="11" fill="#45B649"/>
<path d="M8.81143 15V6.86286H10.1257L14.5143 12.4629L14.1829 12.68V6.86286H15.8629V15H14.5371L10.1714 9.42286L10.48 9.18286V15H8.81143ZM17.4945 15V6.86286H23.1059V8.24571H19.243V10.1657H22.8659V11.56H19.243V13.6171H23.1059V15H17.4945ZM26.6775 15L23.7861 6.86286H25.6032L27.6946 13.16H27.2375L29.4432 6.86286H30.6889L32.8032 13.16H32.4032L34.5289 6.86286H36.2318L33.3404 15H31.9118L29.8775 9.21714H30.1632L28.1061 15H26.6775Z" fill="white"/>
</svg>
