<svg width="77" height="22" viewBox="0 0 77 22" fill="none" xmlns="http://www.w3.org/2000/svg">
<rect width="77" height="22" rx="11" fill="#292928"/>
<path d="M9.02857 15V6.84H15.68V15H13.9543V8.28H10.7543V15H9.02857ZM17.7225 15V6.84H20.3511C21.3492 6.84 22.1073 7.06095 22.6254 7.50286C23.1435 7.93714 23.4025 8.58476 23.4025 9.44571C23.4025 10.0248 23.2806 10.5162 23.0368 10.92C22.793 11.3238 22.4349 11.6286 21.9625 11.8343C21.4901 12.04 20.9073 12.1429 20.2139 12.1429H19.4482V15H17.7225ZM19.4482 10.7143H20.1796C20.4996 10.7143 20.7701 10.6686 20.9911 10.5771C21.212 10.4781 21.3758 10.3333 21.4825 10.1429C21.5968 9.95238 21.6539 9.71619 21.6539 9.43429C21.6539 9.03048 21.5396 8.73714 21.3111 8.55429C21.0825 8.37143 20.7358 8.27619 20.2711 8.26857L19.4482 8.25714V10.7143ZM24.9438 15V6.84H29.6409V8.25714H26.6695V10.0514H29.4352V11.4686H26.6695V13.5714H29.6409V15H24.9438ZM31.3388 15V6.84H33.6931L35.6246 13.08H35.6588L37.7046 6.84H40.0588V15H38.4474V11.1371C38.4474 10.8781 38.4512 10.581 38.4588 10.2457C38.4741 9.91048 38.4855 9.59429 38.4931 9.29714C38.5084 8.99238 38.5198 8.76381 38.5274 8.61143H38.4817L36.3788 15H34.7903L32.8246 8.6H32.7788C32.7865 8.75238 32.7979 8.98095 32.8131 9.28571C32.8284 9.59048 32.8436 9.91809 32.8588 10.2686C32.8741 10.6114 32.8817 10.9238 32.8817 11.2057V15H31.3388ZM42.1201 15V6.84H43.8458V10.8057C43.8458 11.0571 43.842 11.3352 43.8344 11.64C43.8268 11.9371 43.8153 12.2076 43.8001 12.4514C43.7925 12.6876 43.7849 12.8438 43.7772 12.92H43.8115L46.9087 6.84H49.0572V15H47.3315V11.2286C47.3315 11.0229 47.3353 10.7981 47.3429 10.5543C47.3506 10.3029 47.3582 10.0629 47.3658 9.83429C47.381 9.60571 47.3925 9.40762 47.4001 9.24C47.4077 9.06476 47.4153 8.95048 47.4229 8.89714H47.3772L44.2687 15H42.1201ZM51.9374 15.1143C51.7698 15.1143 51.5907 15.1029 51.4003 15.08C51.2174 15.0571 51.0422 15.019 50.8746 14.9657V13.5143C51.0041 13.5448 51.1374 13.5714 51.2746 13.5943C51.4117 13.6171 51.5565 13.6286 51.7088 13.6286C52.0441 13.6286 52.3069 13.5752 52.4974 13.4686C52.6879 13.3619 52.8365 13.2133 52.9431 13.0229C53.0498 12.8248 53.145 12.6 53.2288 12.3486L53.366 13.56L50.2231 6.84H52.0974L53.526 10.3714C53.5565 10.4476 53.5984 10.5467 53.6517 10.6686C53.7127 10.7905 53.7698 10.9162 53.8231 11.0457C53.8765 11.1752 53.9184 11.2895 53.9488 11.3886H54.006C54.0365 11.2971 54.0784 11.1867 54.1317 11.0571C54.185 10.92 54.2384 10.7829 54.2917 10.6457C54.3527 10.501 54.4022 10.3752 54.4403 10.2686L55.766 6.84H57.5031L55.0917 12.5086C54.8098 13.1638 54.5203 13.6819 54.2231 14.0629C53.9336 14.4438 53.606 14.7143 53.2403 14.8743C52.8746 15.0343 52.4403 15.1143 51.9374 15.1143ZM58.5263 15V6.84H60.8806L62.8121 13.08H62.8463L64.8921 6.84H67.2463V15H65.6349V11.1371C65.6349 10.8781 65.6387 10.581 65.6463 10.2457C65.6616 9.91048 65.673 9.59429 65.6806 9.29714C65.6959 8.99238 65.7073 8.76381 65.7149 8.61143H65.6692L63.5663 15H61.9778L60.0121 8.6H59.9663C59.974 8.75238 59.9854 8.98095 60.0006 9.28571C60.0159 9.59048 60.0311 9.91809 60.0463 10.2686C60.0616 10.6114 60.0692 10.9238 60.0692 11.2057V15H58.5263Z" fill="white"/>
</svg>
